<svg xmlns="http://www.w3.org/2000/svg" xmlns:xlink="http://www.w3.org/1999/xlink" width="76" height="57" viewBox="0 0 76 57">
    <defs>
        <path id="a" d="M0 0h76v57H0z"/>
        <linearGradient id="d" x1="45.244%" x2="29.925%" y1="55.686%" y2="100%">
            <stop offset="0%" stop-color="#DAE8FF"/>
            <stop offset="100%" stop-color="#EFF4FF"/>
        </linearGradient>
        <circle id="c" cx="24.632" cy="24.632" r="24.632"/>
        <linearGradient id="f" x1="63.51%" x2="59.784%" y1="6.855%" y2="84.158%">
            <stop offset="0%" stop-color="#A6C0ED"/>
            <stop offset="100%" stop-color="#EFF4FF"/>
        </linearGradient>
        <path id="g" d="M34.007 67C52.46 67 66.9 52.002 66.9 33.5c0-18.502-14.96-33.5-33.413-33.5C15.034 0 .912 15.018.074 33.5c-.173 3.819-.122 6.883 1.039 10.24.52 1.737 1.274 3.216 2.25 4.861C9.582 59.083 21.28 67 34.007 67z"/>
        <linearGradient id="i" x1="102.048%" x2="0%" y1="27.727%" y2="88.766%">
            <stop offset="0%" stop-color="#FFAB00"/>
            <stop offset="100%" stop-color="#FF7200"/>
        </linearGradient>
        <linearGradient id="j" x1="6.516%" x2="93.428%" y1="12.114%" y2="90.746%">
            <stop offset="0%" stop-color="#FFF000"/>
            <stop offset="100%" stop-color="#FEDD00"/>
        </linearGradient>
    </defs>
    <g fill="none" fill-rule="evenodd">
        <mask id="b" fill="#fff">
            <use xlink:href="#a"/>
        </mask>
        <g mask="url(#b)">
            <g transform="matrix(-1 0 0 1 63.25 3.838)">
                <mask id="e" fill="#fff">
                    <use xlink:href="#c"/>
                </mask>
                <use fill="url(#d)" xlink:href="#c"/>
                <g fill="url(#f)" fill-rule="nonzero" mask="url(#e)">
                    <path d="M14.376 20.742c1.097.076 14.377-11.168 17.77-9.75 1.58.662 3.77 2.423 6.573 5.284.805.822 2.126 2.26 3.963 4.312"/>
                </g>
                <path fill="url(#f)" fill-rule="nonzero" d="M17.532 34.889c1.824 0 22.493-27.37 28.268-24.714 2.691 1.237 6.52 4.853 11.487 10.846 1.427 1.722 3.779 4.746 7.055 9.072" mask="url(#e)" transform="rotate(4 40.937 22.44)"/>
                <path fill="url(#f)" fill-rule="nonzero" d="M2.63 20.276v-4.987h3.857v4.987V10.14l3.535-2.252v12.387h.643v-7.722h3.857v7.722h.804v-3.861l2.089-1.609 1.929 1.609v3.86h.803v-7.72h1.768v10.133l-19.285.805v-3.217z" mask="url(#e)"/>
            </g>
            <g transform="translate(13 -7)">
                <mask id="h" fill="#fff">
                    <use xlink:href="#g"/>
                </mask>
                <g mask="url(#h)">
                    <path fill="#3A4139" d="M25.179 52.03c1.932.302 20.741 6.344 22.113 8.335 1.886 2.737-15.296.202-16.118-.204L-10.04 46.518l35.22 5.511z"/>
                    <path fill="#FF9800" d="M-10.041 46.518l57.187 6.196c2.014.218 4.411 4.396 4.446 6.573-2.686 1.724-9.297 1.117-16.65.404l-44.983-13.173"/>
                    <path fill="#CC6E22" d="M47.301 52.809c1.202.143 2.537 1.685 3.425 3.367-15.507-.722-16.268 2.833-14.685 3.707l-.457-.044h-.016l-.015-.002-.23-.023-.015-.001-.214-.021-.016-.001-.015-.002L-8.014 47.18l-1.162-.488 1.644.178 40.256 5.855 14.577.084"/>
                    <path fill="#3A4139" d="M-10.041 46.518l35.21 5.54c3.09.486 5.973 6.675 5.994 8.173l-41.204-13.713"/>
                    <path fill="url(#i)" d="M0 20.211L36.772 2.08c7.626-3.76 19.393-1.745 21.774.74 4.282 4.466 6.835 11.02 7.952 18.501.447 2.996.126 6.39-3.603 7.666H47.297L0 20.211" transform="translate(-10.041 26.383)"/>
                    <path fill="#F98F39" d="M35.145 26.434c5.95-.342 11.746 1.108 13.341 2.768 4.292 4.467 6.85 11.02 7.97 18.502.449 2.996.127 6.39-3.611 7.666h-5.39c1.131-.766 1.797-2.587 2.028-4.537.121-1.022.065-2.099-.073-3.129-1.002-7.481-3.29-14.035-7.128-18.502-.975-1.134-3.756-2.253-7.137-2.768"/>
                    <path fill="#F78309" d="M-10.041 46.599l34.7-15.794c2.87-1.307 4.933.67 5.354 1.931 1.51 4.53 2.691 10.103 3.344 16.277.14 1.333 1.19 4.03 3.865 6.357L-10.04 46.6"/>
                    <path fill="url(#j)" d="M64.226 19.37c.55 3.038-.119 5.235-2.88 5.098h-9.32c-3.718-.28-6.004-2.06-6.396-5.098-.633-4.922-1.724-9.378-3.333-13.015-.31-.602-.272-1.31-.072-1.808 4.165-4.744 15.05-1.599 16.825.806.288.391.492.703.728 1.074 2.26 3.548 3.516 7.803 4.448 12.943z" transform="translate(-10.041 26.383)"/>
                    <path fill="#EF822A" d="M49.86 32.98H32.384a27.776 27.776 0 0 0-.128-.292c-.31-.595-.272-1.296-.072-1.787 4.161-4.688 15.035-1.58 16.809.797a17.315 17.315 0 0 1 .867 1.281zM53.77 44.435c.083.424.164.853.242 1.289.548 3.055-.118 5.265-2.868 5.127h-9.281c-3.703-.281-5.98-2.072-6.37-5.127a71.666 71.666 0 0 0-.175-1.289c7.418 1.782 13.428 1.212 18.452 0"/>
                    <path fill="#DB7D30" d="M23.404 33.379c5.087-2.004 7.248 9.782 7.413 16.958l-40.858-3.782L23.404 33.38z"/>
                    <path fill="#F78309" d="M23.05 42.731c3.712-.424 6.416 3.48 7.767 7.606l-40.858-3.828 33.09-3.778z"/>
                    <path fill="#EF822A" d="M-10.041 46.558L22.64 36.11c5.101-1.63 8.012 8.26 8.177 14.228-1.35-4.073-4.055-7.926-7.768-7.507l-33.09 3.728"/>
                    <path fill="#FF9600" d="M-10.041 46.518l33.152-2.577c1.705-.133 3.012.185 4.243 2.175l-37.395.402"/>
                    <path fill="#FEDD00" d="M-9.522 46.692l31.642-9.923v5.025l-31.642 4.898zm34.399-10.068c1.596.632 2.89 2.559 3.862 4.992a28.624 28.624 0 0 1-1.14 1.915c-.38-.716-1.644-1.872-3.593-1.881l.87-5.026z"/>
                    <path fill="#3A4139" d="M-10.041 46.518l33.439 4.252c1.177.15 2.897 5.884 2.917 7.378l-36.356-11.63"/>
                    <path fill="#DB7D30" d="M45.093 32.98a23.495 23.495 0 0 0-2.698-3.88 3.4 3.4 0 0 0-.498-.46c3.367.533 6.39 1.874 7.26 3.04a17.56 17.56 0 0 1 .877 1.3h-4.941M49.53 47.636a58.249 58.249 0 0 0-.362-2.325c1.747-.201 3.39-.509 4.94-.876.085.424.167.853.247 1.289.559 3.055-.12 5.265-2.924 5.127h-1.837c.134-1.048.078-2.156-.065-3.215z"/>
                </g>
            </g>
        </g>
    </g>
</svg>
