<svg xmlns="http://www.w3.org/2000/svg" xmlns:xlink="http://www.w3.org/1999/xlink" width="76" height="57" viewBox="0 0 76 57">
    <defs>
        <path id="a" d="M0 0h76v57H0z"/>
        <linearGradient id="d" x1="45.244%" x2="29.925%" y1="55.686%" y2="100%">
            <stop offset="0%" stop-color="#DAE8FF"/>
            <stop offset="100%" stop-color="#EFF4FF"/>
        </linearGradient>
        <ellipse id="c" cx="25.732" cy="25.25" rx="25.732" ry="25.25"/>
        <linearGradient id="e" x1="63.51%" x2="59.784%" y1="6.855%" y2="84.158%">
            <stop offset="0%" stop-color="#A6C0ED"/>
            <stop offset="100%" stop-color="#EFF4FF"/>
        </linearGradient>
        <linearGradient id="g" x1="43.668%" x2="63.948%" y1="-7.291%" y2="95.147%">
            <stop offset="0%" stop-color="#A6C0ED"/>
            <stop offset="100%" stop-color="#EFF4FF"/>
        </linearGradient>
        <linearGradient id="h" x1="65.648%" x2="78.912%" y1="-52.302%" y2="82.843%">
            <stop offset="0%" stop-color="#A6C0ED"/>
            <stop offset="100%" stop-color="#EFF4FF"/>
        </linearGradient>
        <linearGradient id="i" x1="50%" x2="50%" y1="0%" y2="100%">
            <stop offset="0%" stop-color="#00CAFF"/>
            <stop offset="100%" stop-color="#009AFF"/>
        </linearGradient>
        <linearGradient id="j" x1="50%" x2="50%" y1="0%" y2="50%">
            <stop offset="0%" stop-color="#00CAFF"/>
            <stop offset="100%" stop-color="#009AFF"/>
        </linearGradient>
        <linearGradient id="k" x1="-28.921%" x2="50%" y1="-225.441%" y2="100%">
            <stop offset="0%" stop-color="#FAFF11"/>
            <stop offset="100%" stop-color="#FFC507"/>
        </linearGradient>
        <linearGradient id="l" x1="59.103%" x2="23.352%" y1="91.321%" y2="0%">
            <stop offset="0%" stop-color="#FFF976"/>
            <stop offset="100%" stop-color="#FEDD00"/>
        </linearGradient>
    </defs>
    <g fill="none" fill-rule="evenodd">
        <mask id="b" fill="#fff">
            <use xlink:href="#a"/>
        </mask>
        <g mask="url(#b)">
            <g transform="translate(12.268 3)">
                <mask id="f" fill="#fff">
                    <use xlink:href="#c"/>
                </mask>
                <use fill="url(#d)" fill-opacity=".56" xlink:href="#c"/>
                <path fill="url(#e)" fill-rule="nonzero" d="M15.323 53.832c-1.909-.213-2.3-1.533-1.174-3.962.156-.183.547-.404 1.174-.66a14.84 14.84 0 0 1 2.054-.66c-.782-3.522-.196-6.016 1.76-7.484 1.957-1.467 4.695-1.834 8.216-1.1.199-.943.688-1.603 1.467-1.981.78-.379 1.954-.526 3.521-.44 1.674-3.244 4.466-5.012 8.379-5.306 3.912-.293 6.4.521 7.466 2.444h1.467c2.272 6.367.434 11.21-5.514 14.527-8.921 4.977-25.953 4.942-28.816 4.622z" mask="url(#f)"/>
                <path fill="url(#g)" fill-rule="nonzero" d="M21.072 26.947c-1.765-.188-2.12-1.413-1.064-3.675.145-.172.508-.378 1.09-.62.58-.241 1.215-.45 1.904-.624-.705-3.268-.149-5.588 1.67-6.962 1.817-1.374 4.353-1.73 7.608-1.067.188-.876.644-1.492 1.368-1.848.723-.355 1.81-.498 3.26-.428 1.566-3.022 4.16-4.68 7.782-4.973 3.621-.294 5.92.45 6.895 2.23l1.358-.008c2.416 5.656 3.215 9.295 2.398 10.916-.96 1.907-5.153 1.242-7.58 2.61-8.282 4.671-24.041 4.73-26.689 4.449z" mask="url(#f)" transform="rotate(19 37.533 16.864)"/>
                <path fill="url(#h)" fill-rule="nonzero" d="M9.181 27.953c-10.597-1.404-10.989-2.725-1.173-3.962.156-.183.547-.404 1.173-.66a14.84 14.84 0 0 1 2.054-.66c-.782-3.522-.195-6.016 1.76-7.484 1.957-1.467 4.651-1.535 8.083-.202 2.667 10.05-1.299 14.373-11.897 12.968z" mask="url(#f)" transform="matrix(-1 0 0 1 22.81 0)"/>
            </g>
            <path fill="#00BCFF" d="M14.812 29.763c.038-2.883-1.656-8.422-2.595-13.984-.246-1.454 1.76-3.81 2.003-3.064 2.614 8.024 7.404 13.395 9.615 14.08 4.17 1.296-9.044 4.554-9.023 2.968z"/>
            <path fill="#E46E5E" d="M15.641 16.532a34.55 34.55 0 0 0 1.81 3.406c-.774.137-1.544.288-2.303.4l-1.995.3c-.26-1.157-.52-2.352-.753-3.559 1.08-.196 2.16-.382 3.241-.547"/>
            <path fill="#FFFFFE" d="M23.865 26.742l-.002-.001h.002"/>
            <path fill="#00AFFF" d="M22.808 27.024c-1.735-1.163-3.926-3.813-5.686-6.844l.414-.077c2.315 3.889 4.86 6.342 6.303 6.79l.002.001-1.033.13"/>
            <path fill="#FFFFFE" d="M14.13 12.701a.205.205 0 0 0-.064-.089c-.004-.025-.003-.039.002-.038.007.001.028.041.062.127"/>
            <path fill="#00B1FF" d="M15.223 16.617a24.521 24.521 0 0 1-.37-.985c-.381-1.088-.76-2.763-.788-3.058a.228.228 0 0 1 .06.103 37.947 37.947 0 0 0 1.443 3.881l-.345.059"/>
            <path fill="#F1B4A8" d="M17.031 20.032a29.511 29.511 0 0 1-1.761-3.449l.351-.054a34.651 34.651 0 0 0 1.827 3.429l-.417.074"/>
            <path fill="#009DFF" d="M14.721 27.9c-.421-3.066-1.718-7.596-2.501-12.14-.101-.585.17-1.317.543-1.932l.013.007c-.374.728-.267 1.861.021 3.18l-.337.06c.235 1.223.497 2.433.76 3.604l.514-.077c.496 1.91 1.512 5.938 2.778 7.067-.633.08-1.231.158-1.79.23"/>
            <path fill="#D96553" d="M13.165 20.639a119.889 119.889 0 0 1-.76-3.592l.336-.06c.215.978.532 2.059.826 3.152l.112.423-.514.077"/>
            <path fill="url(#i)" d="M69.628 2.6c2.255-1.607 1.45-.469 1.217-.168-.232.301-11.304 10.658-20.242 17.048-2.953 2.112 3.562-6.616 5.4-7.612C60.141 9.62 65.5 5.544 69.628 2.599z" transform="rotate(8 -44.894 34.463)"/>
            <path fill="#EDEAE1" d="M64.315 25.384c6.59-4.23 12.22-8.205 12.338-8.354.045-.058.117-.143.185-.233-.067.09-.14.175-.185.233-.118.15-5.747 4.125-12.338 8.354m-1.918-1.251a98.311 98.311 0 0 1 0 0"/>
            <path fill="url(#i)" d="M55.34 24.835c-2.735.505-34.555 2.895-39.403 1.81-9.171-2.053-7.81-5.492-6.839-5.79C14.445 19.215 51.303 9.482 55.066 8.96c6.053-.84 10.01 3.366 12.313 6.965 2.186 3.417-4.588 7.54-12.038 8.911z" transform="rotate(8 -44.894 34.463)"/>
            <path fill="#009DFF" d="M55.702 38.886c-1.082.046-6.111.153-11.632.186-12.403.075-24.805-2.819-27.646-3.885-2.796-1.05-4.519-2.088-5.537-3.023-.835-.767-.562-.148 2.351.841 4.711 1.6 16.325 4.171 41.32 3.424 2.498-.075 9.032-.92 11.522-1.828 3.607-1.317 2.78-2.83 2.78-2.83 1.692 3.676-5.59 6.799-13.158 7.115z"/>
            <path fill="#C9EAFF" d="M15.434 32.228C12.947 33.774 8.173 34 8.18 34.524c.008.524 9.827-.54 13.052-.716 2.404-.131-5-2.078-5.8-1.58"/>
            <path fill="#D8D3C6" d="M21.263 33.848l.002-.001h-.002m.005 0h.003-.003m.005 0h.003-.003m.005-.001h.003-.003m.01 0c1.483-.123-1.285-1.035-3.517-1.469 2.232.434 5 1.346 3.518 1.468m-3.534-1.471l-.04-.008.04.008m-.853-.144"/>
            <path fill="#00C1FF" d="M8.173 34.596l-.002-.001a.1.1 0 0 1 0-.013c.073-.526 4.79-.779 7.262-2.35.19-.121.754-.103 1.47-.002.255.036.529.082.813.136l.04.008.015.003c2.232.431 5.002 1.332 3.52 1.446h-.007l-.003.001h-.005-.005-.003l-.002.001h-.007l-.029.002c-.506.03-1.176.082-1.945.147a.269.269 0 0 1-.059-.003c-.117-.016-.32-.088-.618-.174a8.531 8.531 0 0 0-1.193-.256c-.834-.117-1.963-.154-3.434.085-2.31.376-5.722.982-5.808.97"/>
            <path fill="#EDEAE1" d="M37.787 41.58c.028 1.81-1.056 3.338-2.42 3.412-1.366.075-2.495-1.331-2.522-3.141-.028-1.81 1.056-3.337 2.422-3.412 1.364-.074 2.493 1.332 2.52 3.14M26.78 40.281c.026 1.418-.833 2.611-1.916 2.668-1.084.057-1.982-1.046-2.007-2.463-.024-1.415.834-2.61 1.919-2.667 1.083-.056 1.98 1.046 2.005 2.462"/>
            <path fill="#0064D2" d="M33.212 44.87c-1.315-.186-2.576-.568-3.845-.952-1.27-.384-2.548-.77-3.898-.959a12.789 12.789 0 0 0-.599-.07 1.52 1.52 0 0 1-.289-.013c-.638-.09-1.184-.584-1.478-1.289.294.704.84 1.197 1.478 1.287.04.006.08.01.12.012 1.43-.532 2.865-1.046 4.29-1.596 1.56-.604 3.367-.995 4.73-2.098-.605.622-.987 1.593-.967 2.664.029 1.628.974 2.929 2.179 3.098.12.017.243.023.368.017-.717.036-1.41-.006-2.089-.102"/>
            <path fill="#CDE5FF" d="M24.596 42.796c-.64-.09-1.187-.584-1.482-1.288 3.696-.847 7.44-1.755 10.989-2.693a2.62 2.62 0 0 0-.347.3c-1.366 1.103-3.177 1.493-4.74 2.097-1.429.55-2.867 1.064-4.3 1.596a1.492 1.492 0 0 1-.12-.012"/>
            <path fill="#CDE5FF" d="M37.787 41.58c.028 1.81-1.056 3.338-2.42 3.412-1.366.075-2.495-1.331-2.522-3.141-.028-1.81 1.056-3.337 2.422-3.412 1.364-.074 2.493 1.332 2.52 3.14"/>
            <path fill="#0064D2" d="M37.341 41.662c.025 1.536-.898 2.83-2.062 2.892-1.164.063-2.128-1.13-2.153-2.665-.024-1.534.899-2.828 2.063-2.891 1.164-.063 2.128 1.131 2.152 2.664"/>
            <path fill="#2E3540" d="M34.381 44.171c-.666-.43-1.117-1.309-1.144-2.325.028 1.017.485 1.882 1.144 2.325m-1.144-2.325v-.008.008m0-.01v-.007.008m.602-1.998c.15-.217.3-.366.408-.43-.15.123-.287.267-.408.43"/>
            <path fill="#FEDD00" d="M34.454 44.325a.437.437 0 0 1-.17-.06 1.472 1.472 0 0 1-.055-.035c-.64-.446-1.081-1.322-1.102-2.354v-.008-.001-.008a3.625 3.625 0 0 1 .598-2.024c.12-.165.254-.312.4-.437l.011-.006c.118-.073.289-.1.481-.074.638.09 1.519.775 1.544 2.374.026 1.618-1.073 2.722-1.707 2.633"/>
            <path fill="url(#i)" d="M29.126 25.723c-5.73 3.671-18.432 8.813-24.906 11.985-3.535 1.732-1.728 1.533-1.235 1.522.416-.008 24.627-8.169 38.662-15.026 4.637-2.265-9.978-.11-12.52 1.519" transform="rotate(8 -44.894 34.463)"/>
            <path fill="#EDEAE1" d="M-1.062 46.807a.24.24 0 0 0 .009-.002c4.36-.806 14.149-2.767 24.301-5.204-10.16 2.44-19.954 4.4-24.31 5.206"/>
            <path fill="#B6AFA0" d="M23.104 41.58"/>
            <path fill="#A89F8E" d="M23.104 41.58"/>
            <path fill="#D8D3C6" d="M34.580999999999996 38.774c.008 0 .015-.002.023-.003l-.023.003m.036-.005l.015-.003-.015.003m.029-.005l.01-.001a.234.234 0 0 1-.01.001m.053-.008h0"/>
            <path fill="#D96553" d="M26.582 36.752"/>
            <path fill="#D8D3C6" d="M30.886 35.488c3.499-.429 8.674-.505 11.076-.167-2.402-.338-7.577-.262-11.076.167M42.093 36.489l.003-.001h-.003m.02-.006l.003-.001h-.003m.038-.012l.003-.001h-.003m.011-.003c.705-.248 1.03-.458 1.054-.633.033-.229-.447-.398-1.254-.511 1.425.2 1.828.573.2 1.144"/>
            <path fill="#EDEAE1" d="M68.84 31.769a21.51 21.51 0 0 0-1.877-3.426c.886 1.193 1.529 2.408 1.877 3.426"/>
            <path fill="url(#j)" d="M55.1 8.938c.423-.06.843-.087 1.259-.087 3.388 0 6.473 1.858 8.59 3.932.923.98 1.707 2.042 2.36 3.059.055.105.106.209.153.31.02.07.037.156.042.256-.385-.286-1.87-1.364-4.396-2.901.336-.454.383-.843.415-1.678a.187.187 0 0 0-.007-.04c-.157-.329-1.184-1.034-1.378-1.034-.269.42-.502.764-.687 1.02l-.168.224c-.136.177-.22.274-.22.274-.16-.066-.306-.15-.454-.234-1.1-.624-1.94-1.302-4.794-1.302-3.06 0-8.437.78-18.936 3.246-16.671 3.915-27.35 6.822-27.455 6.822C14.789 19.15 51.365 9.458 55.099 8.938z" transform="rotate(8 -44.894 34.463)"/>
            <path fill="#D96553" d="M69.045 32.372l-.09-.077a.832.832 0 0 0-.01-.224c.038.104.071.204.1.301"/>
            <path fill="url(#k)" d="M58.93 15.667c1.662-.455 3.479-1.39 4.008-1.972.529-.58.588-.943.625-1.926.01-.264-1.332-1.182-1.406-1.057-.535.915-1.04 1.5-1.04 1.5s-1.935 1.755-3.882 2.748c-1.4.713.258 1.1 1.694.707" transform="rotate(8 -44.894 34.463)"/>
            <path fill="#E9E6DC" d="M63.45 27.131a16.98 16.98 0 0 0 .017-.024l-.018.024"/>
            <path fill="#F6F4EF" d="M59.178 29.213"/>
            <path fill="#2D3540" d="M63.472 26.972"/>
            <g fill="url(#l)" transform="rotate(-1 1659.934 -1609.336)">
                <path d="M.46.068h1.69c.224 0 .405.18.405.404v2.81c0 .224-.181.405-.404.405H.46a.404.404 0 0 1-.404-.404V.472c0-.223.18-.404.404-.404zM4.458.068h1.69c.223 0 .404.18.404.404v2.81c0 .224-.181.405-.404.405h-1.69a.404.404 0 0 1-.404-.404V.472c0-.223.18-.404.404-.404zM9.453.068h1.69c.224 0 .404.18.404.404v2.81c0 .224-.18.405-.404.405h-1.69a.404.404 0 0 1-.404-.404V.472c0-.223.181-.404.404-.404zM13.95.068h1.69c.223 0 .404.18.404.404v2.81c0 .224-.181.405-.404.405h-1.69a.404.404 0 0 1-.404-.404V.472c0-.223.18-.404.404-.404zM17.946.068h1.69c.224 0 .404.18.404.404v2.81c0 .224-.18.405-.404.405h-1.69a.404.404 0 0 1-.404-.404V.472c0-.223.181-.404.404-.404z"/>
            </g>
        </g>
    </g>
</svg>
